<?xml version="1.0" encoding="utf-8"?>
<svg viewBox="28.987 49.597 560 900" fill="none" xmlns="http://www.w3.org/2000/svg">
  <path fill-rule="evenodd" clip-rule="evenodd"
    d="M 80.184 49.597 L 319.511 49.597 C 374.601 51.975 419.994 61.145 455.577 84.403 C 491.114 107.349 517.485 138.991 534.607 179.32 C 551.694 219.574 560.212 265.303 560.212 316.452 C 560.212 367.6 551.694 413.055 534.603 452.75 C 517.478 492.52 491.22 523.736 455.916 546.406 C 447.725 551.589 439.024 556.174 429.807 560.153 L 588.987 916.856 L 485.77 916.856 L 337.649 579.82 L 169.125 579.934 L 169.125 916.856 L 80.184 916.856 L 80.184 49.597 Z M 434.832 949.19 L 286.712 612.154 L 169.101 612.665 L 169.224 916.828 L 118.188 949.19 L 29.246 949.19 L 29.246 81.931 M 80.114 916.771 L 48.454 936.893 L 29.316 949.133 M 79.785 49.891 L 48.125 70.003 L 28.987 82.243 M 588.771 917.178 L 557.111 937.3 L 537.973 949.54 L 435.154 949.597 L 454.292 937.357 L 485.952 917.244 M 336.931 580.512 L 305.271 600.624 L 286.133 612.864 M 318.139 483.226 C 355.646 483.226 385.836 476.491 408.707 463.01 C 431.806 449.538 448.501 430.439 458.791 405.732 C 469.315 380.75 474.573 350.983 474.573 316.452 C 474.573 281.92 469.315 251.737 458.791 225.902 C 448.272 200.077 431.462 180.135 408.363 166.104 C 385.264 151.78 354.733 144.618 316.768 144.618 L 167.194 144.618 L 167.194 483.226 L 318.139 483.226 Z M 167.17 483.397 C 167.17 483.397 253.519 483.274 318.154 483.217 C 343.885 483.189 382.932 476.197 385.286 473.677 C 394.782 463.502 402.351 451.641 407.993 438.094 C 418.517 413.102 423.775 383.345 423.775 348.804 C 423.775 314.273 418.517 284.09 407.993 258.264 C 397.474 232.43 380.664 212.497 357.565 198.457 C 334.466 184.142 303.935 176.98 265.97 176.98 L 167.194 176.98 L 167.17 483.397 Z"
    stroke="#ffd700" style="stroke-width: 2px; paint-order: fill;" />
</svg>